<svg width="36" height="33" viewBox="0 0 36 33" fill="none" xmlns="http://www.w3.org/2000/svg">
<path d="M26 12.0403H27.5C29.0913 12.0403 30.6174 12.6448 31.7426 13.7207C32.8679 14.7967 33.5 16.256 33.5 17.7776C33.5 19.2992 32.8679 20.7586 31.7426 21.8345C30.6174 22.9105 29.0913 23.5149 27.5 23.5149H26M26 12.0403H2V24.9493C2 26.4709 2.63214 27.9302 3.75736 29.0062C4.88258 30.0821 6.4087 30.6866 8 30.6866H20C21.5913 30.6866 23.1174 30.0821 24.2426 29.0062C25.3679 27.9302 26 26.4709 26 24.9493V12.0403ZM8 2V6.30299M14 2V6.30299M20 2V6.30299" stroke="#1E2748" stroke-width="4" stroke-linecap="round" stroke-linejoin="round"/>
</svg>
