<svg width="88" height="88" viewBox="0 0 88 88" fill="none" xmlns="http://www.w3.org/2000/svg">
<path d="M54.1945 0.805456C54.7103 1.32118 55 2.02065 55 2.75C55 3.47935 55.2897 4.17882 55.8055 4.69454C56.3212 5.21027 57.0207 5.5 57.75 5.5C58.4793 5.5 59.1788 5.78973 59.6945 6.30546C60.2103 6.82118 60.5 7.52065 60.5 8.25V11C60.5 11.7293 60.2103 12.4288 59.6945 12.9445C59.1788 13.4603 58.4793 13.75 57.75 13.75H30.25C29.5207 13.75 28.8212 13.4603 28.3055 12.9445C27.7897 12.4288 27.5 11.7293 27.5 11V8.25C27.5 7.52065 27.7897 6.82118 28.3055 6.30546C28.8212 5.78973 29.5207 5.5 30.25 5.5C30.9793 5.5 31.6788 5.21027 32.1945 4.69454C32.7103 4.17882 33 3.47935 33 2.75C33 2.02065 33.2897 1.32118 33.8055 0.805456C34.3212 0.289731 35.0207 0 35.75 0H52.25C52.9793 0 53.6788 0.289731 54.1945 0.805456Z" fill="#1E2748"/>
<path d="M17.3055 11.8055C17.8212 11.2897 18.5207 11 19.25 11H22C22.7293 11 23.4288 10.7103 23.9445 10.1945C24.4603 9.67882 24.75 8.97935 24.75 8.25C24.75 7.52065 24.4603 6.82118 23.9445 6.30546C23.4288 5.78973 22.7293 5.5 22 5.5H19.25C17.062 5.5 14.9635 6.36919 13.4164 7.91637C11.8692 9.46354 11 11.562 11 13.75V79.75C11 81.938 11.8692 84.0365 13.4164 85.5836C14.9635 87.1308 17.062 88 19.25 88H68.75C70.938 88 73.0365 87.1308 74.5836 85.5836C76.1308 84.0365 77 81.938 77 79.75V13.75C77 11.562 76.1308 9.46354 74.5836 7.91637C73.0365 6.36919 70.938 5.5 68.75 5.5H66C65.2707 5.5 64.5712 5.78973 64.0555 6.30546C63.5397 6.82118 63.25 7.52065 63.25 8.25C63.25 8.97935 63.5397 9.67882 64.0555 10.1945C64.5712 10.7103 65.2707 11 66 11H68.75C69.4793 11 70.1788 11.2897 70.6945 11.8055C71.2103 12.3212 71.5 13.0207 71.5 13.75V79.75C71.5 80.4793 71.2103 81.1788 70.6945 81.6945C70.1788 82.2103 69.4793 82.5 68.75 82.5H19.25C18.5207 82.5 17.8212 82.2103 17.3055 81.6945C16.7897 81.1788 16.5 80.4793 16.5 79.75V13.75C16.5 13.0207 16.7897 12.3212 17.3055 11.8055Z" fill="#1E2748"/>
<path fill-rule="evenodd" clip-rule="evenodd" d="M57 59C57.2652 59 57.5196 58.8946 57.7071 58.7071C57.8946 58.5196 58 58.2652 58 58V56C58 55.7348 57.8946 55.4804 57.7071 55.2929C57.5196 55.1054 57.2652 55 57 55H55C54.7348 55 54.4804 55.1054 54.2929 55.2929C54.1054 55.4804 54 55.7348 54 56V58C54 58.2652 54.1054 58.5196 54.2929 58.7071C54.4804 58.8946 54.7348 59 55 59H57ZM55 58H57V56H55V58Z" fill="#212529"/>
<path d="M51 57C51 57.2652 50.8946 57.5196 50.7071 57.7071C50.5196 57.8946 50.2652 58 50 58H32C31.7348 58 31.4804 57.8946 31.2929 57.7071C31.1054 57.5196 31 57.2652 31 57C31 56.7348 31.1054 56.4804 31.2929 56.2929C31.4804 56.1054 31.7348 56 32 56H50C50.2652 56 50.5196 56.1054 50.7071 56.2929C50.8946 56.4804 51 56.7348 51 57ZM50 50C50.2652 50 50.5196 49.8946 50.7071 49.7071C50.8946 49.5196 51 49.2652 51 49C51 48.7348 50.8946 48.4804 50.7071 48.2929C50.5196 48.1054 50.2652 48 50 48H32C31.7348 48 31.4804 48.1054 31.2929 48.2929C31.1054 48.4804 31 48.7348 31 49C31 49.2652 31.1054 49.5196 31.2929 49.7071C31.4804 49.8946 31.7348 50 32 50H50ZM50 42C50.2652 42 50.5196 41.8946 50.7071 41.7071C50.8946 41.5196 51 41.2652 51 41C51 40.7348 50.8946 40.4804 50.7071 40.2929C50.5196 40.1054 50.2652 40 50 40H32C31.7348 40 31.4804 40.1054 31.2929 40.2929C31.1054 40.4804 31 40.7348 31 41C31 41.2652 31.1054 41.5196 31.2929 41.7071C31.4804 41.8946 31.7348 42 32 42H50Z" fill="#212529"/>
<path fill-rule="evenodd" clip-rule="evenodd" d="M58 50C58 50.2652 57.8946 50.5196 57.7071 50.7071C57.5196 50.8946 57.2652 51 57 51H55C54.7348 51 54.4804 50.8946 54.2929 50.7071C54.1054 50.5196 54 50.2652 54 50V48C54 47.7348 54.1054 47.4804 54.2929 47.2929C54.4804 47.1054 54.7348 47 55 47H57C57.2652 47 57.5196 47.1054 57.7071 47.2929C57.8946 47.4804 58 47.7348 58 48V50ZM57 50H55V48H57V50ZM57 43C57.2652 43 57.5196 42.8946 57.7071 42.7071C57.8946 42.5196 58 42.2652 58 42V40C58 39.7348 57.8946 39.4804 57.7071 39.2929C57.5196 39.1054 57.2652 39 57 39H55C54.7348 39 54.4804 39.1054 54.2929 39.2929C54.1054 39.4804 54 39.7348 54 40V42C54 42.2652 54.1054 42.5196 54.2929 42.7071C54.4804 42.8946 54.7348 43 55 43H57ZM55 42H57V40H55V42Z" fill="#212529"/>
</svg>
