<svg width="173" height="54" viewBox="0 0 173 54" fill="none" xmlns="http://www.w3.org/2000/svg">
<path d="M16.4536 38.14C17.2702 38.14 17.9586 37.86 18.5186 37.3C19.1019 36.74 19.4052 36.0517 19.4286 35.235L19.3936 34.5H12.5336V29.95H26.2536C26.3936 29.9267 26.5102 29.9733 26.6036 30.09C26.6969 30.1833 26.7436 30.2883 26.7436 30.405V33.975C26.7436 34.2783 26.5802 34.4533 26.2536 34.5H23.1386C23.1386 34.5233 23.1502 34.5933 23.1736 34.71C23.2202 34.85 23.2436 35.0133 23.2436 35.2V35.76C23.2436 36.74 23.0569 37.65 22.6836 38.49C22.3102 39.33 21.7969 40.065 21.1436 40.695C20.4902 41.325 19.7202 41.815 18.8336 42.165C17.9702 42.515 17.0369 42.69 16.0336 42.69H10.0836C9.01022 42.69 7.99522 42.48 7.03856 42.06C6.08189 41.6633 5.24189 41.1033 4.51855 40.38C3.81855 39.68 3.25855 38.8517 2.83855 37.895C2.44189 36.9617 2.24355 35.9467 2.24355 34.85V25.61H6.09355V34.29C6.09355 34.8267 6.19855 35.3283 6.40855 35.795C6.61855 36.2617 6.89855 36.67 7.24856 37.02C7.59856 37.37 8.00689 37.6383 8.47355 37.825C8.94022 38.035 9.44189 38.14 9.97856 38.14H16.4536ZM32.8368 23.37H37.5618V19.73C37.5618 19.3567 37.4335 19.0417 37.1768 18.785C36.9202 18.5283 36.6052 18.4 36.2318 18.4H33.5368C33.2102 18.4 32.9185 18.505 32.6618 18.715C32.4052 18.925 32.2535 19.1933 32.2068 19.52L31.7518 22.005C31.6818 22.355 31.7518 22.67 31.9618 22.95C32.1952 23.23 32.4868 23.37 32.8368 23.37ZM41.4118 28.235C41.4118 29.0983 41.2485 29.915 40.9218 30.685C40.5952 31.4317 40.1402 32.0967 39.5568 32.68C38.9968 33.24 38.3318 33.6833 37.5618 34.01C36.8152 34.3367 36.0102 34.5 35.1468 34.5H26.2568C26.1168 34.5 26.0002 34.4533 25.9068 34.36C25.8135 34.2433 25.7668 34.115 25.7668 33.975V30.44C25.7668 30.3233 25.8135 30.2183 25.9068 30.125C25.9768 30.0083 26.0935 29.95 26.2568 29.95H35.8818C36.3485 29.95 36.7452 29.7867 37.0718 29.46C37.3985 29.1333 37.5618 28.7367 37.5618 28.27V27.535C36.8618 27.7917 36.1618 27.92 35.4618 27.92H33.3968C32.5335 27.92 31.7285 27.7333 30.9818 27.36C30.2352 26.9867 29.6052 26.4967 29.0918 25.89C28.6018 25.26 28.2518 24.5483 28.0418 23.755C27.8318 22.9617 27.8085 22.1333 27.9718 21.27L28.4968 18.47C28.6135 17.8167 28.8352 17.2217 29.1618 16.685C29.5118 16.1483 29.9202 15.6817 30.3868 15.285C30.8535 14.8883 31.3785 14.585 31.9618 14.375C32.5685 14.1417 33.1985 14.025 33.8518 14.025H35.7418C36.5352 14.025 37.2702 14.1767 37.9468 14.48C38.6468 14.7833 39.2535 15.1917 39.7668 15.705C40.2802 16.2183 40.6768 16.825 40.9568 17.525C41.2602 18.2017 41.4118 18.925 41.4118 19.695V28.235ZM29.6868 6.885H33.7118V10.91H29.6868V6.885ZM35.5318 6.885H39.5568V10.91H35.5318V6.885ZM52.9408 34.01C52.9408 34.3367 52.7774 34.5 52.4508 34.5H51.4358C50.5958 34.5 49.8024 34.3483 49.0558 34.045C48.3091 33.7183 47.6558 33.275 47.0958 32.715C46.5358 32.155 46.0924 31.5017 45.7658 30.755C45.4391 30.0083 45.2758 29.215 45.2758 28.375V10.525H49.1258V28.27C49.1258 28.7367 49.2891 29.1333 49.6158 29.46C49.9424 29.7867 50.3391 29.95 50.8058 29.95H52.4508C52.5908 29.95 52.7074 30.0083 52.8008 30.125C52.8941 30.2183 52.9408 30.335 52.9408 30.475V34.01ZM58.3885 29.95C58.8551 29.95 59.2518 29.7867 59.5785 29.46C59.9051 29.11 60.0685 28.7017 60.0685 28.235V20.99H63.9185V28.235C63.9185 29.0983 63.7551 29.915 63.4285 30.685C63.1018 31.4317 62.6468 32.0967 62.0635 32.68C61.5035 33.24 60.8385 33.6833 60.0685 34.01C59.3218 34.3367 58.5168 34.5 57.6535 34.5H52.4385C52.2985 34.5 52.1818 34.4533 52.0885 34.36C51.9951 34.2433 51.9485 34.1267 51.9485 34.01V30.475C51.9485 30.335 51.9951 30.2183 52.0885 30.125C52.1818 30.0083 52.2985 29.95 52.4385 29.95H58.3885ZM54.0485 17.805H58.0735V13.78H54.0485V17.805ZM59.8935 17.805H63.9185V13.78H59.8935V17.805ZM71.616 34.5H67.766V10.525H71.616V34.5ZM85.9214 28.655C85.8514 29.005 85.9214 29.3083 86.1314 29.565C86.3648 29.8217 86.6564 29.95 87.0064 29.95H91.9414V26.1C91.9414 25.7267 91.8014 25.4117 91.5214 25.155C91.2648 24.8983 90.9498 24.77 90.5764 24.77H86.6564L85.9214 28.655ZM87.4614 34.5C86.5981 34.5 85.8048 34.325 85.0814 33.975C84.3581 33.6017 83.7514 33.1233 83.2614 32.54C82.7714 31.9333 82.4098 31.2333 82.1764 30.44C81.9664 29.6467 81.9431 28.83 82.1064 27.99L82.7014 24.77H80.9864C80.5198 24.77 80.1231 24.9333 79.7964 25.26C79.4698 25.5867 79.3064 25.9833 79.3064 26.45V43.46H75.4564V26.66C75.4564 25.7967 75.6198 24.9917 75.9464 24.245C76.2731 23.475 76.7164 22.81 77.2764 22.25C77.8598 21.6667 78.5248 21.2117 79.2714 20.885C80.0414 20.5583 80.8581 20.395 81.7214 20.395H90.0164C90.8098 20.395 91.5564 20.5467 92.2564 20.85C92.9564 21.1533 93.5631 21.5733 94.0764 22.11C94.6131 22.6233 95.0331 23.23 95.3364 23.93C95.6398 24.6067 95.7914 25.3417 95.7914 26.135V28.235C95.7914 28.7017 95.9548 29.11 96.2814 29.46C96.6081 29.7867 97.0048 29.95 97.4714 29.95H99.3264C99.6531 29.95 99.8164 30.1133 99.8164 30.44V34.01C99.8164 34.3367 99.6531 34.5 99.3264 34.5H98.1014C97.4248 34.5 96.7714 34.395 96.1414 34.185C95.5348 33.9517 94.9748 33.5667 94.4614 33.03C94.0648 33.5667 93.6214 33.9517 93.1314 34.185C92.6414 34.395 92.1048 34.5 91.5214 34.5H87.4614ZM99.333 34.5C99.0063 34.5 98.843 34.3367 98.843 34.01V30.44C98.843 30.1133 99.0063 29.95 99.333 29.95H102.553C102.413 29.8567 102.308 29.7167 102.238 29.53C102.191 29.3433 102.168 29.1333 102.168 28.9C102.168 28.6667 102.18 28.4333 102.203 28.2C102.25 27.9433 102.285 27.7333 102.308 27.57L102.798 25.19C102.938 24.56 103.171 23.9767 103.498 23.44C103.825 22.88 104.221 22.4133 104.688 22.04C105.155 21.6433 105.68 21.34 106.263 21.13C106.87 20.8967 107.5 20.78 108.153 20.78H109.588C110.358 20.78 111.081 20.9317 111.758 21.235C112.458 21.5383 113.065 21.9467 113.578 22.46C114.091 22.9733 114.5 23.58 114.803 24.28C115.106 24.9567 115.258 25.68 115.258 26.45V28.27C115.258 28.69 115.211 29.0633 115.118 29.39C115.025 29.7167 114.966 29.9033 114.943 29.95H120.263V24.91C120.263 24.42 120.123 23.9883 119.843 23.615C119.563 23.2183 119.19 22.9383 118.723 22.775L106.193 18.89L107.243 14.9L119.388 18.68C120.088 18.89 120.73 19.205 121.313 19.625C121.896 20.045 122.386 20.535 122.783 21.095C123.203 21.655 123.53 22.2733 123.763 22.95C123.996 23.6267 124.113 24.3383 124.113 25.085V30.09C124.113 30.6967 123.996 31.2683 123.763 31.805C123.53 32.3417 123.215 32.8083 122.818 33.205C122.421 33.6017 121.943 33.9167 121.383 34.15C120.846 34.3833 120.275 34.5 119.668 34.5H114.033V31.945C113.87 32.4117 113.601 32.8083 113.228 33.135C112.878 33.4617 112.493 33.73 112.073 33.94C111.676 34.1267 111.28 34.2667 110.883 34.36C110.486 34.4533 110.16 34.5 109.903 34.5H99.333ZM111.408 29.95V26.1C111.408 25.75 111.28 25.4467 111.023 25.19C110.766 24.9333 110.451 24.805 110.078 24.805H107.803C107.476 24.805 107.185 24.91 106.928 25.12C106.671 25.33 106.52 25.5983 106.473 25.925L106.018 28.62C105.948 28.97 106.03 29.285 106.263 29.565C106.496 29.8217 106.788 29.95 107.138 29.95H111.408Z" fill="#1E2748"/>
<g clip-path="url(#clip0_5148_1537)">
<path d="M154.25 25.5001C153.56 25.5001 153 24.3801 153 23.0001C153 21.6201 153.56 20.5001 154.25 20.5001C154.94 20.5001 155.5 21.6201 155.5 23.0001C155.5 24.3801 154.94 25.5001 154.25 25.5001Z" fill="#1E2748"/>
<path d="M160.07 0.805055C160.205 0.922564 160.314 1.06776 160.388 1.2308C160.462 1.39384 160.5 1.57093 160.5 1.75006V3.00006H161.75C162.745 3.00006 163.698 3.39514 164.402 4.09841C165.105 4.80167 165.5 5.75549 165.5 6.75006V38.0001H169.25C169.582 38.0001 169.899 38.1318 170.134 38.3662C170.368 38.6006 170.5 38.9185 170.5 39.2501C170.5 39.5816 170.368 39.8995 170.134 40.1339C169.899 40.3684 169.582 40.5001 169.25 40.5001H136.75C136.418 40.5001 136.101 40.3684 135.866 40.1339C135.632 39.8995 135.5 39.5816 135.5 39.2501C135.5 38.9185 135.632 38.6006 135.866 38.3662C136.101 38.1318 136.418 38.0001 136.75 38.0001H140.5V4.25006C140.5 3.94889 140.609 3.65786 140.806 3.43049C141.004 3.20313 141.277 3.05472 141.575 3.01256L159.075 0.512555C159.252 0.48726 159.433 0.500284 159.604 0.550745C159.776 0.601207 159.935 0.687931 160.07 0.805055ZM161.75 5.50006H160.5V38.0001H163V6.75006C163 6.41854 162.868 6.10059 162.634 5.86617C162.399 5.63175 162.082 5.50006 161.75 5.50006ZM143 5.33506V38.0001H158V3.19256L143 5.33506Z" fill="#1E2748"/>
</g>
<defs>
<clipPath id="clip0_5148_1537">
<rect width="40" height="40" fill="white" transform="translate(133 0.5)"/>
</clipPath>
</defs>
</svg>
