<svg width="88" height="88" viewBox="0 0 88 88" fill="none" xmlns="http://www.w3.org/2000/svg">
<path fill-rule="evenodd" clip-rule="evenodd" d="M60.5 24.75C60.5 25.4794 60.2102 26.1788 59.6945 26.6946C59.1788 27.2103 58.4793 27.5 57.75 27.5H8.24998C7.52063 27.5 6.82115 27.2103 6.30543 26.6946C5.7897 26.1788 5.49998 25.4794 5.49998 24.75C5.49998 24.0207 5.7897 23.3212 6.30543 22.8055C6.82115 22.2897 7.52063 22 8.24998 22H57.75C58.4793 22 59.1788 22.2897 59.6945 22.8055C60.2102 23.3212 60.5 24.0207 60.5 24.75ZM60.5 46.75C60.5 47.4794 60.2102 48.1788 59.6945 48.6945C59.1788 49.2103 58.4793 49.5 57.75 49.5H8.24998C7.52063 49.5 6.82115 49.2103 6.30543 48.6945C5.7897 48.1788 5.49998 47.4794 5.49998 46.75C5.49998 46.0207 5.7897 45.3212 6.30543 44.8055C6.82115 44.2897 7.52063 44 8.24998 44H57.75C58.4793 44 59.1788 44.2897 59.6945 44.8055C60.2102 45.3212 60.5 46.0207 60.5 46.75ZM60.5 68.75C60.5 69.4793 60.2102 70.1788 59.6945 70.6945C59.1788 71.2103 58.4793 71.5 57.75 71.5H8.24998C7.52063 71.5 6.82115 71.2103 6.30543 70.6945C5.7897 70.1788 5.49998 69.4793 5.49998 68.75C5.49998 68.0207 5.7897 67.3212 6.30543 66.8055C6.82115 66.2897 7.52063 66 8.24998 66H57.75C58.4793 66 59.1788 66.2897 59.6945 66.8055C60.2102 67.3212 60.5 68.0207 60.5 68.75Z" fill="#1E2748"/>
<path d="M75.669 75.933C75.5754 76.2363 75.3871 76.5016 75.1318 76.6901C74.8764 76.8785 74.5674 76.9802 74.25 76.9802C73.9326 76.9802 73.6236 76.8785 73.3682 76.6901C73.1128 76.5016 72.9245 76.2363 72.831 75.933L71.94 73.018C71.7475 72.3855 71.17 71.951 70.521 71.951H67.4905C66.066 71.951 65.4555 70.1195 66.5885 69.2395L69.1625 67.243C69.4057 67.0528 69.5854 66.7931 69.6777 66.4985C69.7701 66.2038 69.7707 65.888 69.6795 65.593L68.728 62.4635C68.299 61.0555 69.8995 59.9225 71.0545 60.8135L73.348 62.5955C73.6058 62.7962 73.9232 62.9052 74.25 62.9052C74.5767 62.9052 74.8941 62.7962 75.152 62.5955L77.4455 60.819C78.6005 59.9225 80.1955 61.0555 79.772 62.4635L78.8205 65.5985C78.7305 65.8928 78.7317 66.2074 78.824 66.5009C78.9163 66.7944 79.0953 67.0532 79.3375 67.243L81.9115 69.2395C83.0445 70.1195 82.434 71.951 81.0095 71.951H77.9845C77.6639 71.952 77.3521 72.0563 77.0955 72.2485C76.8389 72.4408 76.6511 72.7106 76.56 73.018L75.669 75.933ZM75.669 53.933C75.5754 54.2363 75.3871 54.5016 75.1318 54.6901C74.8764 54.8785 74.5674 54.9802 74.25 54.9802C73.9326 54.9802 73.6236 54.8785 73.3682 54.6901C73.1128 54.5016 72.9245 54.2363 72.831 53.933L71.94 51.018C71.7475 50.3855 71.17 49.951 70.521 49.951H67.4905C66.066 49.951 65.4555 48.1195 66.5885 47.2395L69.1625 45.243C69.4057 45.0528 69.5854 44.7931 69.6777 44.4985C69.7701 44.2038 69.7707 43.888 69.6795 43.593L68.728 40.4635C68.299 39.061 69.8995 37.9225 71.0545 38.8135L73.348 40.5955C73.6058 40.7962 73.9232 40.9052 74.25 40.9052C74.5767 40.9052 74.8941 40.7962 75.152 40.5955L77.4455 38.819C78.6005 37.9225 80.1955 39.0555 79.772 40.4635L78.8205 43.5985C78.7305 43.8928 78.7317 44.2074 78.824 44.5009C78.9163 44.7945 79.0953 45.0532 79.3375 45.243L81.9115 47.2395C83.0445 48.1195 82.434 49.951 81.0095 49.951H77.9845C77.6639 49.952 77.3521 50.0563 77.0955 50.2485C76.8389 50.4408 76.6511 50.7106 76.56 51.018L75.669 53.933ZM75.669 31.933C75.5754 32.2363 75.3871 32.5016 75.1318 32.6901C74.8764 32.8785 74.5674 32.9802 74.25 32.9802C73.9326 32.9802 73.6236 32.8785 73.3682 32.6901C73.1128 32.5016 72.9245 32.2363 72.831 31.933L71.94 29.018C71.7475 28.3855 71.17 27.951 70.521 27.951H67.4905C66.066 27.951 65.4555 26.1195 66.5885 25.2395L69.1625 23.243C69.4057 23.0528 69.5854 22.7931 69.6777 22.4985C69.7701 22.2038 69.7707 21.888 69.6795 21.593L68.728 18.4635C68.299 17.061 69.8995 15.9225 71.0545 16.8135L73.348 18.5955C73.6058 18.7962 73.9232 18.9052 74.25 18.9052C74.5767 18.9052 74.8941 18.7962 75.152 18.5955L77.4455 16.819C78.6005 15.9225 80.1955 17.0555 79.772 18.4635L78.8205 21.5985C78.7305 21.8928 78.7317 22.2074 78.824 22.5009C78.9163 22.7945 79.0953 23.0532 79.3375 23.243L81.9115 25.2395C83.0445 26.1195 82.434 27.951 81.0095 27.951H77.9845C77.6639 27.952 77.3521 28.0563 77.0955 28.2485C76.8389 28.4408 76.6511 28.7106 76.56 29.018L75.669 31.933Z" fill="#1E2748"/>
</svg>
