<svg width="88" height="88" viewBox="0 0 88 88" fill="none" xmlns="http://www.w3.org/2000/svg">
<g clip-path="url(#clip0_4818_484266)">
<path d="M11 55H27.5C28.9587 55 30.3576 55.5795 31.3891 56.6109C32.4205 57.6424 33 59.0413 33 60.5V77C33 78.4587 32.4205 79.8576 31.3891 80.8891C30.3576 81.9205 28.9587 82.5 27.5 82.5H11C9.54131 82.5 8.14236 81.9205 7.11091 80.8891C6.07946 79.8576 5.5 78.4587 5.5 77V60.5C5.5 59.0413 6.07946 57.6424 7.11091 56.6109C8.14236 55.5795 9.54131 55 11 55ZM60.5 5.5H77C78.4587 5.5 79.8576 6.07946 80.8891 7.11091C81.9205 8.14236 82.5 9.54131 82.5 11V27.5C82.5 28.9587 81.9205 30.3576 80.8891 31.3891C79.8576 32.4205 78.4587 33 77 33H60.5C59.0413 33 57.6424 32.4205 56.6109 31.3891C55.5795 30.3576 55 28.9587 55 27.5V11C55 9.54131 55.5795 8.14236 56.6109 7.11091C57.6424 6.07946 59.0413 5.5 60.5 5.5ZM60.5 55C59.0413 55 57.6424 55.5795 56.6109 56.6109C55.5795 57.6424 55 59.0413 55 60.5V77C55 78.4587 55.5795 79.8576 56.6109 80.8891C57.6424 81.9205 59.0413 82.5 60.5 82.5H77C78.4587 82.5 79.8576 81.9205 80.8891 80.8891C81.9205 79.8576 82.5 78.4587 82.5 77V60.5C82.5 59.0413 81.9205 57.6424 80.8891 56.6109C79.8576 55.5795 78.4587 55 77 55H60.5ZM60.5 0C57.5826 0 54.7847 1.15893 52.7218 3.22183C50.6589 5.28473 49.5 8.08262 49.5 11V27.5C49.5 30.4174 50.6589 33.2153 52.7218 35.2782C54.7847 37.3411 57.5826 38.5 60.5 38.5H77C79.9174 38.5 82.7153 37.3411 84.7782 35.2782C86.8411 33.2153 88 30.4174 88 27.5V11C88 8.08262 86.8411 5.28473 84.7782 3.22183C82.7153 1.15893 79.9174 0 77 0L60.5 0ZM11 49.5C8.08262 49.5 5.28473 50.6589 3.22183 52.7218C1.15893 54.7847 0 57.5826 0 60.5L0 77C0 79.9174 1.15893 82.7153 3.22183 84.7782C5.28473 86.8411 8.08262 88 11 88H27.5C30.4174 88 33.2153 86.8411 35.2782 84.7782C37.3411 82.7153 38.5 79.9174 38.5 77V60.5C38.5 57.5826 37.3411 54.7847 35.2782 52.7218C33.2153 50.6589 30.4174 49.5 27.5 49.5H11ZM49.5 60.5C49.5 57.5826 50.6589 54.7847 52.7218 52.7218C54.7847 50.6589 57.5826 49.5 60.5 49.5H77C79.9174 49.5 82.7153 50.6589 84.7782 52.7218C86.8411 54.7847 88 57.5826 88 60.5V77C88 79.9174 86.8411 82.7153 84.7782 84.7782C82.7153 86.8411 79.9174 88 77 88H60.5C57.5826 88 54.7847 86.8411 52.7218 84.7782C50.6589 82.7153 49.5 79.9174 49.5 77V60.5ZM0 11C0 8.08262 1.15893 5.28473 3.22183 3.22183C5.28473 1.15893 8.08262 0 11 0L27.5 0C30.4174 0 33.2153 1.15893 35.2782 3.22183C37.3411 5.28473 38.5 8.08262 38.5 11V27.5C38.5 30.4174 37.3411 33.2153 35.2782 35.2782C33.2153 37.3411 30.4174 38.5 27.5 38.5H11C8.08262 38.5 5.28473 37.3411 3.22183 35.2782C1.15893 33.2153 0 30.4174 0 27.5V11ZM29.447 15.697C29.7027 15.4413 29.9055 15.1378 30.0439 14.8037C30.1823 14.4696 30.2535 14.1116 30.2535 13.75C30.2535 13.3884 30.1823 13.0304 30.0439 12.6963C29.9055 12.3622 29.7027 12.0587 29.447 11.803C29.1913 11.5473 28.8878 11.3445 28.5537 11.2061C28.2196 11.0677 27.8616 10.9965 27.5 10.9965C27.1384 10.9965 26.7804 11.0677 26.4463 11.2061C26.1122 11.3445 25.8087 11.5473 25.553 11.803L16.5 20.8615L12.947 17.303C12.6913 17.0473 12.3878 16.8445 12.0537 16.7061C11.7196 16.5677 11.3616 16.4965 11 16.4965C10.6384 16.4965 10.2804 16.5677 9.94629 16.7061C9.61222 16.8445 9.30868 17.0473 9.053 17.303C8.79732 17.5587 8.5945 17.8622 8.45612 18.1963C8.31775 18.5304 8.24653 18.8884 8.24653 19.25C8.24653 19.6116 8.31775 19.9696 8.45612 20.3037C8.5945 20.6378 8.79732 20.9413 9.053 21.197L14.553 26.697C14.8085 26.9531 15.1119 27.1563 15.446 27.2949C15.7801 27.4336 16.1383 27.5049 16.5 27.5049C16.8617 27.5049 17.2199 27.4336 17.554 27.2949C17.8881 27.1563 18.1915 26.9531 18.447 26.697L29.447 15.697Z" fill="#1E2748"/>
</g>
<defs>
<clipPath id="clip0_4818_484266">
<rect width="88" height="88" fill="white"/>
</clipPath>
</defs>
</svg>
